<svg width="257" height="149" viewBox="0 0 257 149" fill="none" xmlns="http://www.w3.org/2000/svg">
<path d="M0.787964 0H256.788V99C256.788 112.261 251.52 124.979 242.143 134.355C232.766 143.732 220.049 149 206.788 149H50.788C37.5271 149 24.8094 143.732 15.4326 134.355C6.05581 124.979 0.787964 112.261 0.787964 99L0.787964 0Z" fill="#E0B973"/>
<path d="M88.393 93.245C89.023 93.245 89.023 93.26 89.023 93.68V95.84C89.023 97.235 88.948 97.385 88.258 97.475L87.928 97.52C87.808 97.61 87.808 97.955 87.928 98.045C88.648 98.015 89.383 98 90.133 98C90.823 98 91.558 98.015 92.308 98.045C92.428 97.955 92.428 97.61 92.308 97.52L91.948 97.46C91.258 97.34 91.168 97.235 91.168 95.84V90.26C91.168 88.865 91.258 88.73 91.948 88.625L92.248 88.58C92.368 88.49 92.368 88.145 92.248 88.055C91.558 88.085 90.868 88.1 90.133 88.1C89.413 88.1 88.678 88.085 87.853 88.055C87.733 88.145 87.733 88.49 87.853 88.58L88.258 88.64C88.948 88.745 89.023 88.865 89.023 90.26V92C89.023 92.435 89.023 92.45 88.393 92.45H85.273C84.658 92.45 84.643 92.435 84.643 92V90.26C84.643 88.865 84.733 88.715 85.378 88.625L85.693 88.58C85.813 88.49 85.813 88.145 85.693 88.055C85.033 88.085 84.283 88.1 83.608 88.1C82.888 88.1 82.108 88.085 81.373 88.055C81.253 88.145 81.253 88.49 81.373 88.58L81.733 88.625C82.423 88.715 82.498 88.865 82.498 90.26V95.84C82.498 97.235 82.423 97.385 81.733 97.475L81.373 97.52C81.253 97.61 81.253 97.955 81.373 98.045C82.138 98.015 82.888 98 83.608 98C84.283 98 85.033 98.015 85.888 98.045C86.008 97.955 86.008 97.61 85.888 97.52L85.408 97.46C84.733 97.37 84.643 97.235 84.643 95.84V93.68C84.643 93.26 84.658 93.245 85.273 93.245H88.393ZM107.828 87.86C104.693 87.86 102.473 90.155 102.473 93.125C102.473 96.26 104.663 98.24 107.678 98.24C110.903 98.24 113.093 96.275 113.093 93.005C113.093 89.96 110.948 87.86 107.828 87.86ZM110.693 93.2C110.693 95.63 109.928 97.55 107.963 97.55C105.518 97.55 104.873 94.61 104.873 92.78C104.873 90.275 105.863 88.55 107.708 88.55C109.568 88.55 110.693 90.635 110.693 93.2ZM126.065 95.84C126.065 97.235 125.975 97.37 125.3 97.445L124.625 97.52C124.505 97.61 124.505 97.955 124.625 98.045C125.675 98.015 126.455 98 127.175 98C127.85 98 128.6 98.015 129.575 98.045C129.68 97.955 129.68 97.61 129.575 97.52L128.975 97.445C128.3 97.355 128.21 97.235 128.21 95.84V89.225C128.21 88.835 128.255 88.79 128.615 88.79H129.515C130.64 88.79 130.85 89.495 131.105 90.455C131.18 90.575 131.585 90.545 131.66 90.41C131.63 89.555 131.735 88.34 131.885 87.83C131.855 87.785 131.75 87.725 131.66 87.725C131.57 87.725 131.525 87.74 131.465 87.77C131.33 88.085 131.105 88.1 130.115 88.1H124.535C123.395 88.1 123.35 88.04 123.275 87.785C123.215 87.74 123.14 87.725 123.065 87.725C122.99 87.725 122.915 87.755 122.855 87.8C122.75 88.385 122.675 89.315 122.36 90.35C122.45 90.545 122.735 90.575 122.915 90.485C123.365 89.39 123.68 88.79 124.775 88.79H125.705C126.065 88.79 126.065 88.865 126.065 89.225V95.84ZM144.763 89.375C144.763 88.82 144.763 88.79 145.258 88.79H146.458C147.193 88.79 147.643 88.97 147.928 89.255C148.123 89.465 148.333 89.915 148.498 90.44C148.648 90.575 148.993 90.545 149.053 90.38C148.978 89.375 148.873 88.295 148.858 88.055C148.663 88.085 147.808 88.1 146.848 88.1H143.668C142.948 88.1 142.213 88.085 141.508 88.055C141.358 88.145 141.343 88.49 141.478 88.58L141.853 88.655C142.528 88.79 142.618 88.88 142.618 90.245V95.84C142.618 97.22 142.528 97.31 141.853 97.415L141.148 97.52C141.028 97.595 141.028 97.955 141.148 98.045C142.273 98.015 143.008 98 143.728 98H145.678C146.908 98 148.348 98.015 149.143 98.045C149.353 97.64 149.713 96.425 149.773 95.645C149.713 95.465 149.338 95.405 149.218 95.57C148.393 97.265 147.883 97.31 146.578 97.31C145.483 97.31 145.198 97.19 145.003 96.92C144.823 96.665 144.763 96.185 144.763 95.495V93.71C144.763 93.26 144.778 93.245 145.183 93.245H146.218C146.998 93.245 147.178 93.365 147.328 94.085L147.403 94.46C147.508 94.595 147.883 94.58 147.958 94.445C147.928 93.965 147.913 93.425 147.913 92.855C147.913 92.285 147.928 91.745 147.958 91.265C147.883 91.13 147.508 91.13 147.403 91.25L147.328 91.625C147.178 92.345 146.998 92.45 146.218 92.45H145.183C144.778 92.45 144.763 92.42 144.763 92V89.375ZM162.655 90.26C162.655 88.865 162.745 88.745 163.42 88.64L163.81 88.58C163.93 88.49 163.93 88.145 163.81 88.055C163.06 88.085 162.31 88.1 161.59 88.1C160.87 88.1 160.12 88.085 159.34 88.055C159.16 88.145 159.16 88.49 159.31 88.58L159.745 88.64C160.42 88.73 160.51 88.865 160.51 90.26V95.84C160.51 97.235 160.42 97.355 159.745 97.445L159.175 97.52C159.055 97.61 159.085 97.955 159.22 98.045C160.15 98.015 160.9 98 161.59 98H163.6C164.83 98 166.27 98.015 167.065 98.045C167.275 97.64 167.635 96.395 167.71 95.615C167.605 95.435 167.26 95.375 167.14 95.525C166.255 97.265 165.835 97.31 164.47 97.31C163.375 97.31 163.105 97.19 162.91 96.935C162.715 96.695 162.655 96.215 162.655 95.51V90.26ZM183.729 95.195C183.729 93.545 182.544 92.675 181.614 92.18L180.624 91.655C179.874 91.265 179.259 90.635 179.259 89.945C179.259 89.195 179.799 88.55 180.789 88.55C181.869 88.55 182.514 89.645 182.769 90.41C182.904 90.56 183.279 90.545 183.354 90.365C183.354 89.36 183.204 88.55 183.084 88.22C182.904 88.19 182.769 88.16 182.574 88.1C181.974 87.92 181.359 87.86 180.864 87.86C178.689 87.86 177.369 89.03 177.384 90.725C177.384 92.21 178.569 93.11 179.649 93.65C180.549 94.1 181.689 94.82 181.689 96.035C181.689 96.785 181.179 97.55 180.069 97.55C178.794 97.55 177.789 96.17 177.489 95.195C177.369 95.03 177.024 95.045 176.919 95.24C176.919 96.26 177.114 97.34 177.399 97.67C177.714 97.85 178.569 98.24 179.949 98.24C182.214 98.24 183.729 97.04 183.729 95.195Z" fill="#14274A"/>
<path d="M52.068 56.36C52.068 52.64 52.308 52.32 54.108 52.04L55.148 51.88C55.468 51.64 55.468 50.72 55.148 50.48C53.148 50.56 51.148 50.6 49.228 50.6C47.308 50.6 45.308 50.56 43.228 50.48C42.748 50.72 42.748 51.64 43.148 51.88L44.308 52.04C46.108 52.28 46.348 52.64 46.348 56.36V71.24C46.348 74.96 46.108 75.28 44.308 75.52L42.788 75.72C42.468 75.96 42.548 76.88 42.908 77.12C45.388 77.04 47.388 77 49.228 77H54.588C57.868 77 61.708 77.04 63.828 77.12C64.388 76.04 65.348 72.72 65.548 70.64C65.268 70.16 64.348 70 64.028 70.4C61.668 75.04 60.548 75.16 56.908 75.16C53.988 75.16 53.268 74.84 52.748 74.16C52.228 73.52 52.068 72.24 52.068 70.36V56.36ZM74.1011 66.36C74.1011 70.72 74.9811 73.68 77.0611 75.4C79.2211 77.16 81.9411 77.64 84.9811 77.64C88.2211 77.64 91.1411 76.64 92.9011 74.76C95.1011 72.32 95.4611 68.88 95.4611 65.12V60.64C95.4611 57.4 95.6211 54.36 96.0611 53.32C96.4211 52.48 97.1811 52.24 98.2211 52L98.9411 51.84C99.2611 51.52 99.1811 50.72 98.9411 50.48C97.4211 50.56 95.9411 50.6 94.4611 50.6C92.8211 50.6 91.2611 50.56 89.1011 50.48C88.8611 50.72 88.7811 51.52 89.1011 51.84L90.1811 52.04C91.2611 52.24 92.1411 52.48 92.5011 53.32C92.9411 54.36 93.1011 57.4 93.1011 60.64V65.48C93.1011 70.96 91.5411 75.44 86.4211 75.44C80.3411 75.44 79.8211 70.28 79.8211 65.6V56.36C79.8211 52.64 80.0611 52.32 81.8611 52L82.8211 51.84C83.1411 51.6 83.1411 50.72 82.8211 50.48C80.9011 50.56 78.9411 50.6 76.9811 50.6C75.0611 50.6 73.0611 50.56 71.1411 50.48C70.7011 50.72 70.7411 51.6 71.0611 51.84L72.0611 52.04C73.8611 52.4 74.1011 52.64 74.1011 56.36V66.36ZM104.87 75.8C104.51 76.04 104.63 76.92 105.03 77.12C106.23 77.04 107.91 77 109.23 77C110.91 77 112.71 77.04 114.47 77.12C114.91 76.96 114.95 76 114.59 75.72L113.55 75.6C112.71 75.52 112.27 75.32 112.27 75.08C112.27 74.84 112.35 74.56 112.63 74C113.95 71.48 115.83 68.44 117.39 66.16C117.99 66.92 121.03 71.6 121.63 72.68C122.63 74.36 122.79 74.72 122.79 75.04C122.79 75.28 122.31 75.48 121.31 75.6L120.23 75.72C119.83 75.92 119.99 76.96 120.35 77.12C122.51 77.04 124.31 77 127.07 77C130.31 77 131.55 77.04 133.31 77.12C133.71 76.84 133.71 76 133.43 75.72L132.19 75.56C130.67 75.36 129.67 74.8 128.27 72.68C126.83 70.52 124.87 67.52 121.87 62.88C121.47 62.28 121.31 61.84 121.31 61.64C121.31 61.44 121.71 60.84 122.11 60.28C123.99 57.72 125.75 55.08 127.67 53.12C128.39 52.4 129.11 52.24 129.95 52.12L131.63 51.88C131.91 51.52 131.87 50.68 131.47 50.48C130.19 50.56 128.55 50.6 126.63 50.6C124.75 50.6 123.47 50.56 122.23 50.48C121.79 50.68 121.79 51.6 122.11 51.88L123.71 52.16C124.23 52.24 124.51 52.44 124.51 52.56C124.51 52.76 124.51 53.04 124.07 53.76C122.83 55.88 121.51 57.84 120.03 60.08C118.79 58.28 117.35 56.08 116.27 54.2C115.79 53.36 115.63 53 115.63 52.64C115.63 52.36 116.35 52.16 116.99 52.04L117.87 51.88C118.15 51.56 118.15 50.68 117.71 50.48C116.47 50.56 114.87 50.6 111.63 50.6C109.19 50.6 106.67 50.56 105.39 50.48C104.99 50.72 104.99 51.56 105.35 51.88L106.03 52C107.83 52.32 108.67 52.84 109.59 54.16C111.47 56.84 113.99 60.8 115.31 62.76C115.83 63.48 116.03 64 116.03 64.16C116.03 64.4 115.83 64.88 115.47 65.4C113.75 67.96 111.59 71.08 110.43 72.6C109.11 74.4 108.19 75.36 105.79 75.68L104.87 75.8ZM142.312 66.36C142.312 70.72 143.192 73.68 145.272 75.4C147.432 77.16 150.152 77.64 153.192 77.64C156.432 77.64 159.352 76.64 161.112 74.76C163.312 72.32 163.672 68.88 163.672 65.12V60.64C163.672 57.4 163.832 54.36 164.272 53.32C164.632 52.48 165.392 52.24 166.432 52L167.152 51.84C167.472 51.52 167.392 50.72 167.152 50.48C165.632 50.56 164.152 50.6 162.672 50.6C161.032 50.6 159.472 50.56 157.312 50.48C157.072 50.72 156.992 51.52 157.312 51.84L158.392 52.04C159.472 52.24 160.352 52.48 160.712 53.32C161.152 54.36 161.312 57.4 161.312 60.64V65.48C161.312 70.96 159.752 75.44 154.632 75.44C148.552 75.44 148.032 70.28 148.032 65.6V56.36C148.032 52.64 148.272 52.32 150.072 52L151.032 51.84C151.352 51.6 151.352 50.72 151.032 50.48C149.112 50.56 147.152 50.6 145.192 50.6C143.272 50.6 141.272 50.56 139.352 50.48C138.912 50.72 138.952 51.6 139.272 51.84L140.272 52.04C142.072 52.4 142.312 52.64 142.312 56.36V66.36ZM178.121 71.24C178.121 74.92 177.881 75.2 176.081 75.52L175.001 75.72C174.681 75.92 174.681 76.88 175.001 77.12C177.081 77.04 178.841 77 180.841 77C182.761 77 184.601 77.04 186.721 77.12C187.001 76.88 187.001 75.92 186.721 75.72L185.641 75.52C183.841 75.2 183.601 74.92 183.601 71.24V66.32C183.601 65.52 183.681 65.44 185.081 65.44C186.081 65.44 186.721 65.76 187.201 66.84C188.121 68.96 189.041 70.92 190.321 73.04C192.081 75.92 194.401 77.24 198.081 77.24C199.321 77.24 200.601 77.16 201.241 76.88C201.441 76.64 201.441 76.04 201.081 75.84C200.481 75.8 199.441 75.56 198.401 74.72C196.481 73.08 194.841 70.08 192.201 64.72C192.001 64.28 192.001 64.04 192.401 63.84C194.241 62.92 196.641 61.4 196.641 57.84C196.641 55.28 195.441 53.28 193.121 51.92C191.601 51 188.681 50.48 185.281 50.48C181.481 50.48 178.361 50.64 175.361 50.84C174.881 51.04 174.881 52.04 175.281 52.24L176.361 52.4C178.041 52.64 178.121 53.08 178.121 57.08V71.24ZM183.601 54.36C183.601 52.44 183.681 52.32 185.321 52.32C188.441 52.32 190.561 54.64 190.561 58.24C190.561 60.6 189.801 61.88 189.121 62.56C188.361 63.32 187.521 63.68 186.081 63.68C183.721 63.68 183.601 63.56 183.601 62.16V54.36ZM219.28 68.44C219.28 66.16 219.56 65.16 220.6 63.28L223.12 58.72C225.04 55.24 226 53.8 226.6 53.04C227.04 52.48 227.96 52.2 228.68 52.08L229.72 51.88C230.04 51.6 230.04 50.64 229.56 50.48C228.4 50.56 227.16 50.6 225.64 50.6C224.2 50.6 222.76 50.56 221.16 50.48C220.76 50.68 220.8 51.68 221.12 51.88L221.88 52.04C222.84 52.2 223.48 52.44 223.48 52.68C223.48 53.16 223 54.36 221.56 57.2C220.52 59.24 219.28 61.84 218.12 63.8C217.64 62.8 216.72 60.96 216.12 59.64L214.24 55.36C213.4 53.48 213.2 52.88 213.2 52.56C213.2 52.52 213.44 52.36 214.16 52.2L215.52 51.88C215.88 51.56 215.8 50.64 215.44 50.48C214.08 50.56 212.04 50.6 209.6 50.6C207.24 50.6 205.76 50.56 203.96 50.48C203.48 50.6 203.44 51.56 203.8 51.88L205.16 52.12C206.56 52.36 206.92 53 207.72 54.64L212.48 64.48C213.52 66.6 213.56 67.24 213.56 69.24V71.24C213.56 74.96 213.32 75.24 211.52 75.52L210.16 75.72C209.84 75.96 209.84 76.88 210.16 77.12C212.52 77.04 214.52 77 216.44 77C218.36 77 220.32 77.04 222.92 77.12C223.2 76.88 223.2 75.96 222.92 75.72L221.32 75.52C219.52 75.28 219.28 74.96 219.28 71.24V68.44Z" fill="#14274A"/>
</svg>
