<svg width="150" height="58" viewBox="0 0 150 58" fill="none" xmlns="http://www.w3.org/2000/svg">
<path d="M63.9415 25.6295C60.8062 26.683 57.7473 27.7205 56.7235 28.1737C56.7075 28.0972 56.7075 28.0972 56.7075 28.0972L27.5451 38.4143C27.5451 38.4143 11.9255 43.1903 11.5668 49.8955L51.504 49.8725C55.2988 45.0867 57.4408 38.8883 57.1711 32.2343C57.1486 31.3603 57.0495 30.5022 56.9504 29.6442C59.2916 28.996 67.811 26.1804 68.2599 22.9713C68.2599 22.9713 67.8105 24.2633 63.9415 25.6295ZM46.4405 32.875L54.5899 29.817C54.5899 29.817 54.9262 35.2588 51.657 36.8195L46.4405 32.875Z" fill="white"/>
<path d="M29.9644 6.14864C21.5144 6.23374 13.9999 10.038 9.03482 16.1064C5.72474 20.152 3.91099 25.2435 4.12286 30.4717C4.40849 37.2023 8.20009 45.0388 26.7251 37.3401L29.4777 36.3665L24.2805 32.8972C24.2805 32.8972 26.446 31.407 29.7256 32.9596C33.0212 34.5888 36.3097 33.5034 36.3097 33.5034L46.0024 27.8868L41.1828 29.2915L30.2205 22.3117C32.8454 20.7256 36.5998 20.3419 40.4313 21.8593C44.2627 23.3767 50.643 25.2412 54.7896 24.0566C55.0033 23.9322 55.2329 23.8843 55.4626 23.8364C57.1148 23.3319 61.4624 22.3452 61.4624 22.3452C58.9202 22.7956 55.9473 23.0962 55.1657 23.1793C51.1726 13.2279 41.314 6.17764 30.0409 6.13267L29.9644 6.14864Z" fill="white"/>
<path d="M81.6274 46.12C82.3131 46.12 82.8891 46.0377 83.3554 45.8731C83.8217 45.7086 84.192 45.4891 84.4663 45.2149C84.7497 44.9406 84.9509 44.6206 85.0697 44.2549C85.1977 43.8891 85.2617 43.5006 85.2617 43.0891C85.2617 42.6594 85.1931 42.2754 85.056 41.9371C84.9189 41.5897 84.704 41.2971 84.4114 41.0594C84.1189 40.8126 83.7394 40.6251 83.2731 40.4971C82.816 40.3691 82.2629 40.3051 81.6137 40.3051H77.8971V46.12H81.6274ZM77.8971 32.0217V37.7543H80.832C82.0937 37.7543 83.0446 37.5257 83.6846 37.0686C84.3337 36.6114 84.6583 35.8846 84.6583 34.888C84.6583 33.8549 84.3657 33.1189 83.7806 32.68C83.1954 32.2411 82.2811 32.0217 81.0377 32.0217H77.8971ZM81.0377 29.1691C82.336 29.1691 83.4469 29.2926 84.3703 29.5394C85.2937 29.7863 86.048 30.1383 86.6331 30.5954C87.2274 31.0526 87.6617 31.6057 87.936 32.2549C88.2103 32.904 88.3474 33.6354 88.3474 34.4491C88.3474 34.9154 88.2789 35.3634 88.1417 35.7931C88.0046 36.2137 87.7897 36.6114 87.4971 36.9863C87.2137 37.352 86.848 37.6857 86.4 37.9874C85.9611 38.2891 85.4354 38.5451 84.8229 38.7554C87.5474 39.368 88.9097 40.84 88.9097 43.1714C88.9097 44.0126 88.7497 44.7897 88.4297 45.5029C88.1097 46.216 87.6434 46.8331 87.0309 47.3543C86.4183 47.8663 85.664 48.2686 84.768 48.5611C83.872 48.8537 82.848 49 81.696 49H74.208V29.1691H81.0377ZM94.9965 34.9291V49H91.5954V34.9291H94.9965ZM95.4628 30.8286C95.4628 31.1211 95.4034 31.3954 95.2845 31.6514C95.1656 31.9074 95.0056 32.1314 94.8045 32.3234C94.6125 32.5154 94.3839 32.6709 94.1188 32.7897C93.8536 32.8994 93.5702 32.9543 93.2685 32.9543C92.9759 32.9543 92.6971 32.8994 92.4319 32.7897C92.1759 32.6709 91.9519 32.5154 91.7599 32.3234C91.5679 32.1314 91.4125 31.9074 91.2936 31.6514C91.1839 31.3954 91.1291 31.1211 91.1291 30.8286C91.1291 30.5269 91.1839 30.2434 91.2936 29.9783C91.4125 29.7131 91.5679 29.4846 91.7599 29.2926C91.9519 29.1006 92.1759 28.9497 92.4319 28.84C92.6971 28.7211 92.9759 28.6617 93.2685 28.6617C93.5702 28.6617 93.8536 28.7211 94.1188 28.84C94.3839 28.9497 94.6125 29.1006 94.8045 29.2926C95.0056 29.4846 95.1656 29.7131 95.2845 29.9783C95.4034 30.2434 95.4628 30.5269 95.4628 30.8286ZM101.618 36.6571C101.901 36.3737 102.199 36.1131 102.509 35.8754C102.829 35.6286 103.163 35.4229 103.511 35.2583C103.867 35.0846 104.247 34.952 104.649 34.8606C105.051 34.76 105.49 34.7097 105.965 34.7097C106.733 34.7097 107.415 34.8423 108.009 35.1074C108.603 35.3634 109.097 35.7291 109.49 36.2046C109.892 36.6709 110.194 37.2331 110.395 37.8914C110.605 38.5406 110.711 39.2583 110.711 40.0446V49H107.323V40.0446C107.323 39.1851 107.127 38.5223 106.733 38.056C106.34 37.5806 105.741 37.3429 104.937 37.3429C104.352 37.3429 103.803 37.4754 103.291 37.7406C102.779 38.0057 102.295 38.3669 101.837 38.824V49H98.4499V34.9291H100.521C100.96 34.9291 101.248 35.1349 101.385 35.5463L101.618 36.6571ZM122.764 38.5223C122.38 38.056 121.96 37.7269 121.502 37.5349C121.054 37.3429 120.57 37.2469 120.049 37.2469C119.537 37.2469 119.075 37.3429 118.664 37.5349C118.252 37.7269 117.9 38.0194 117.608 38.4126C117.315 38.7966 117.091 39.2903 116.936 39.8937C116.78 40.488 116.702 41.192 116.702 42.0057C116.702 42.8286 116.766 43.528 116.894 44.104C117.032 44.6709 117.224 45.1371 117.47 45.5029C117.717 45.8594 118.019 46.12 118.376 46.2846C118.732 46.44 119.13 46.5177 119.569 46.5177C120.273 46.5177 120.872 46.3714 121.365 46.0789C121.859 45.7863 122.325 45.3703 122.764 44.8309V38.5223ZM126.152 28.6206V49H124.081C123.633 49 123.349 48.7943 123.23 48.3829L122.942 47.0251C122.376 47.6743 121.722 48.2 120.981 48.6023C120.25 49.0046 119.395 49.2057 118.417 49.2057C117.649 49.2057 116.945 49.0457 116.305 48.7257C115.665 48.4057 115.112 47.944 114.645 47.3406C114.188 46.728 113.832 45.9737 113.576 45.0777C113.329 44.1817 113.205 43.1577 113.205 42.0057C113.205 40.9634 113.347 39.9943 113.63 39.0983C113.914 38.2023 114.321 37.4251 114.851 36.7669C115.381 36.1086 116.017 35.5966 116.757 35.2309C117.498 34.856 118.33 34.6686 119.253 34.6686C120.04 34.6686 120.712 34.792 121.269 35.0389C121.827 35.2857 122.325 35.6194 122.764 36.04V28.6206H126.152ZM132.923 28.6206V49H129.536V28.6206H132.923ZM145.363 40.3463C145.363 39.9074 145.299 39.496 145.171 39.112C145.052 38.7189 144.87 38.376 144.623 38.0834C144.376 37.7909 144.06 37.5623 143.676 37.3977C143.302 37.224 142.863 37.1371 142.36 37.1371C141.382 37.1371 140.609 37.416 140.042 37.9737C139.484 38.5314 139.128 39.3223 138.972 40.3463H145.363ZM138.904 42.3897C138.959 43.112 139.087 43.7383 139.288 44.2686C139.489 44.7897 139.754 45.224 140.083 45.5714C140.412 45.9097 140.801 46.1657 141.249 46.3394C141.706 46.504 142.209 46.5863 142.758 46.5863C143.306 46.5863 143.777 46.5223 144.17 46.3943C144.572 46.2663 144.92 46.1246 145.212 45.9691C145.514 45.8137 145.775 45.672 145.994 45.544C146.223 45.416 146.442 45.352 146.652 45.352C146.936 45.352 147.146 45.4571 147.283 45.6674L148.257 46.9017C147.882 47.3406 147.462 47.7109 146.995 48.0126C146.529 48.3051 146.04 48.5429 145.528 48.7257C145.025 48.8994 144.508 49.0229 143.978 49.096C143.457 49.1691 142.95 49.2057 142.456 49.2057C141.478 49.2057 140.568 49.0457 139.727 48.7257C138.886 48.3966 138.154 47.9166 137.532 47.2857C136.911 46.6457 136.422 45.8594 136.065 44.9269C135.708 43.9851 135.53 42.8971 135.53 41.6629C135.53 40.7029 135.686 39.8023 135.996 38.9611C136.307 38.1109 136.751 37.3749 137.327 36.7531C137.912 36.1223 138.62 35.624 139.452 35.2583C140.294 34.8926 141.24 34.7097 142.291 34.7097C143.178 34.7097 143.996 34.8514 144.746 35.1349C145.496 35.4183 146.14 35.8343 146.68 36.3829C147.219 36.9223 147.64 37.5897 147.942 38.3851C148.252 39.1714 148.408 40.072 148.408 41.0869C148.408 41.5989 148.353 41.9463 148.243 42.1291C148.134 42.3029 147.923 42.3897 147.612 42.3897H138.904Z" fill="white"/>
</svg>
